<svg width="205" height="149" viewBox="0 0 205 149" fill="none" xmlns="http://www.w3.org/2000/svg">
<path d="M9 9H140V75H149V0H0V149H149V134H140V140H9V9Z" fill="black"/>
<path d="M192.031 126.625C189.76 126.625 187.667 126.042 185.75 124.875C183.854 123.708 182.333 122.156 181.188 120.219C180.062 118.26 179.5 116.115 179.5 113.781V110.844C179.5 110.615 179.604 110.5 179.812 110.5H187C187.167 110.5 187.25 110.615 187.25 110.844V113.781C187.25 115.177 187.719 116.385 188.656 117.406C189.594 118.406 190.719 118.906 192.031 118.906C193.365 118.906 194.5 118.396 195.438 117.375C196.375 116.333 196.844 115.135 196.844 113.781C196.844 112.219 195.823 110.854 193.781 109.688C193.448 109.479 193.01 109.229 192.469 108.938C191.948 108.625 191.323 108.271 190.594 107.875C189.865 107.479 189.156 107.094 188.469 106.719C187.781 106.323 187.115 105.948 186.469 105.594C184.135 104.219 182.396 102.5 181.25 100.438C180.125 98.3542 179.562 96.0208 179.562 93.4375C179.562 91.0625 180.146 88.9167 181.312 87C182.479 85.1042 184 83.6042 185.875 82.5C187.771 81.375 189.823 80.8125 192.031 80.8125C194.302 80.8125 196.385 81.375 198.281 82.5C200.177 83.6458 201.688 85.1667 202.812 87.0625C203.958 88.9583 204.531 91.0833 204.531 93.4375V98.6875C204.531 98.8542 204.448 98.9375 204.281 98.9375H197.094C196.927 98.9375 196.844 98.8542 196.844 98.6875L196.781 93.4375C196.781 91.9375 196.312 90.7188 195.375 89.7812C194.438 88.8438 193.323 88.375 192.031 88.375C190.719 88.375 189.594 88.875 188.656 89.875C187.719 90.875 187.25 92.0625 187.25 93.4375C187.25 94.8333 187.542 96 188.125 96.9375C188.729 97.875 189.823 98.7708 191.406 99.625C191.573 99.7083 191.958 99.9167 192.562 100.25C193.167 100.583 193.833 100.958 194.562 101.375C195.312 101.771 195.99 102.135 196.594 102.469C197.198 102.781 197.562 102.969 197.688 103.031C199.812 104.219 201.49 105.677 202.719 107.406C203.969 109.135 204.594 111.26 204.594 113.781C204.594 116.219 204.031 118.406 202.906 120.344C201.76 122.281 200.24 123.812 198.344 124.938C196.448 126.062 194.344 126.625 192.031 126.625Z" fill="black"/>
<path d="M164.156 126.625C161.885 126.625 159.792 126.042 157.875 124.875C155.979 123.708 154.458 122.156 153.312 120.219C152.188 118.26 151.625 116.115 151.625 113.781V110.844C151.625 110.615 151.729 110.5 151.938 110.5H159.125C159.292 110.5 159.375 110.615 159.375 110.844V113.781C159.375 115.177 159.844 116.385 160.781 117.406C161.719 118.406 162.844 118.906 164.156 118.906C165.49 118.906 166.625 118.396 167.562 117.375C168.5 116.333 168.969 115.135 168.969 113.781C168.969 112.219 167.948 110.854 165.906 109.688C165.573 109.479 165.135 109.229 164.594 108.938C164.073 108.625 163.448 108.271 162.719 107.875C161.99 107.479 161.281 107.094 160.594 106.719C159.906 106.323 159.24 105.948 158.594 105.594C156.26 104.219 154.521 102.5 153.375 100.438C152.25 98.3542 151.688 96.0208 151.688 93.4375C151.688 91.0625 152.271 88.9167 153.438 87C154.604 85.1042 156.125 83.6042 158 82.5C159.896 81.375 161.948 80.8125 164.156 80.8125C166.427 80.8125 168.51 81.375 170.406 82.5C172.302 83.6458 173.812 85.1667 174.938 87.0625C176.083 88.9583 176.656 91.0833 176.656 93.4375V98.6875C176.656 98.8542 176.573 98.9375 176.406 98.9375H169.219C169.052 98.9375 168.969 98.8542 168.969 98.6875L168.906 93.4375C168.906 91.9375 168.438 90.7188 167.5 89.7812C166.562 88.8438 165.448 88.375 164.156 88.375C162.844 88.375 161.719 88.875 160.781 89.875C159.844 90.875 159.375 92.0625 159.375 93.4375C159.375 94.8333 159.667 96 160.25 96.9375C160.854 97.875 161.948 98.7708 163.531 99.625C163.698 99.7083 164.083 99.9167 164.688 100.25C165.292 100.583 165.958 100.958 166.688 101.375C167.438 101.771 168.115 102.135 168.719 102.469C169.323 102.781 169.688 102.969 169.812 103.031C171.938 104.219 173.615 105.677 174.844 107.406C176.094 109.135 176.719 111.26 176.719 113.781C176.719 116.219 176.156 118.406 175.031 120.344C173.885 122.281 172.365 123.812 170.469 124.938C168.573 126.062 166.469 126.625 164.156 126.625Z" fill="black"/>
<path d="M136.062 126.625C133.75 126.625 131.635 126.042 129.719 124.875C127.823 123.708 126.312 122.146 125.188 120.188C124.083 118.208 123.531 116.01 123.531 113.594L123.594 93.625C123.594 91.25 124.135 89.1042 125.219 87.1875C126.302 85.25 127.792 83.6979 129.688 82.5312C131.604 81.3438 133.729 80.75 136.062 80.75C138.438 80.75 140.552 81.3229 142.406 82.4688C144.281 83.6146 145.771 85.1667 146.875 87.125C148 89.0625 148.562 91.2292 148.562 93.625V96.5625C148.562 96.7292 148.479 96.8125 148.312 96.8125H141.125C140.958 96.8125 140.875 96.7292 140.875 96.5625V93.625C140.875 92.2083 140.417 90.9896 139.5 89.9688C138.583 88.9479 137.438 88.4375 136.062 88.4375C134.542 88.4375 133.375 88.9583 132.562 90C131.75 91.0417 131.344 92.25 131.344 93.625V113.594C131.344 115.156 131.802 116.438 132.719 117.438C133.635 118.417 134.75 118.906 136.062 118.906C137.438 118.906 138.583 118.365 139.5 117.281C140.417 116.177 140.875 114.948 140.875 113.594V110.625C140.875 110.458 140.958 110.375 141.125 110.375H148.375C148.542 110.375 148.625 110.458 148.625 110.625V113.594C148.625 115.99 148.062 118.177 146.938 120.156C145.792 122.115 144.281 123.688 142.406 124.875C140.531 126.042 138.417 126.625 136.062 126.625Z" fill="black"/>
<path d="M118.781 126H111.531C111.365 126 111.281 125.917 111.281 125.75V118.5C111.281 118.333 111.365 118.25 111.531 118.25H118.781C118.948 118.25 119.031 118.333 119.031 118.5V125.75C119.031 125.917 118.948 126 118.781 126Z" fill="black"/>
<path d="M90.625 126H83.4375C83.2917 126 83.2292 125.896 83.25 125.688L90.5625 102.844L83.375 81.7188C83.3333 81.5521 83.3958 81.4688 83.5625 81.4688H90.75C90.9583 81.4688 91.0833 81.5521 91.125 81.7188L95.4062 96.9375L99.75 81.7188C99.7917 81.5521 99.9271 81.4688 100.156 81.4688H107.25C107.417 81.4688 107.479 81.5521 107.438 81.7188L100.281 102.781L107.5 125.688C107.583 125.896 107.521 126 107.312 126H100.156C99.9688 126 99.8333 125.896 99.75 125.688L95.4062 109.156L91 125.688C90.9792 125.896 90.8542 126 90.625 126Z" fill="black"/>
<path d="M79.5312 126H72.2812C72.0729 126 71.9688 125.896 71.9688 125.688L72.0312 81.7188C72.0312 81.5521 72.1146 81.4688 72.2812 81.4688H79.4688C79.6354 81.4688 79.7188 81.5521 79.7188 81.7188L79.7812 125.688C79.7812 125.896 79.6979 126 79.5312 126Z" fill="black"/>
<path d="M54.3125 126.625C52.0625 126.625 49.9792 126.042 48.0625 124.875C46.1458 123.708 44.6146 122.146 43.4688 120.188C42.3438 118.208 41.7812 116.052 41.7812 113.719L41.9062 81.7188C41.9062 81.5521 41.9896 81.4688 42.1562 81.4688H49.3438C49.5104 81.4688 49.5938 81.5521 49.5938 81.7188V113.719C49.5938 115.156 50.0521 116.385 50.9688 117.406C51.8854 118.406 53 118.906 54.3125 118.906C55.6875 118.906 56.8333 118.406 57.75 117.406C58.6667 116.385 59.125 115.156 59.125 113.719V81.7188C59.125 81.5521 59.2083 81.4688 59.375 81.4688H66.5625C66.7292 81.4688 66.8125 81.5521 66.8125 81.7188L66.9375 113.719C66.9375 116.073 66.375 118.24 65.25 120.219C64.1042 122.177 62.5833 123.74 60.6875 124.906C58.7917 126.052 56.6667 126.625 54.3125 126.625Z" fill="black"/>
</svg>
